<mxfile host="app.diagrams.net" modified="2023-08-22T19:48:13.233Z" agent="Mozilla/5.0 (Windows NT 10.0; Win64; x64) AppleWebKit/537.36 (KHTML, like Gecko) Chrome/116.0.0.0 Safari/537.36" etag="2JDiCOmUodKQXebac2vo" version="21.6.9" type="google">
  <diagram name="Page-1" id="LL36ehkONfQD5UCaYMZ2">
    <mxGraphModel dx="1691" dy="891" grid="1" gridSize="10" guides="1" tooltips="1" connect="1" arrows="1" fold="1" page="1" pageScale="1" pageWidth="1654" pageHeight="1169" math="0" shadow="0">
      <root>
        <mxCell id="0" />
        <mxCell id="1" parent="0" />
        <mxCell id="9eA5lfAB1Y5CMcZifdAw-38" value="User friendly interface" style="rounded=1;whiteSpace=wrap;html=1;" parent="1" vertex="1">
          <mxGeometry x="340" y="400" width="110" height="40" as="geometry" />
        </mxCell>
        <mxCell id="9eA5lfAB1Y5CMcZifdAw-39" value="Sign Up &amp;amp; Login" style="rounded=1;whiteSpace=wrap;html=1;" parent="1" vertex="1">
          <mxGeometry x="340" y="280" width="110" height="40" as="geometry" />
        </mxCell>
        <mxCell id="9eA5lfAB1Y5CMcZifdAw-40" value="Movie listing" style="rounded=1;whiteSpace=wrap;html=1;" parent="1" vertex="1">
          <mxGeometry x="340" y="460" width="110" height="40" as="geometry" />
        </mxCell>
        <mxCell id="9eA5lfAB1Y5CMcZifdAw-41" value="User Accounts" style="rounded=1;whiteSpace=wrap;html=1;" parent="1" vertex="1">
          <mxGeometry x="340" y="340" width="110" height="40" as="geometry" />
        </mxCell>
        <mxCell id="9eA5lfAB1Y5CMcZifdAw-42" value="Seat Selection" style="rounded=1;whiteSpace=wrap;html=1;" parent="1" vertex="1">
          <mxGeometry x="340" y="520" width="110" height="40" as="geometry" />
        </mxCell>
        <mxCell id="9eA5lfAB1Y5CMcZifdAw-43" value="Seat Cancelation" style="rounded=1;whiteSpace=wrap;html=1;" parent="1" vertex="1">
          <mxGeometry x="340" y="580" width="110" height="40" as="geometry" />
        </mxCell>
        <mxCell id="9eA5lfAB1Y5CMcZifdAw-44" value="Ticket Reservation" style="rounded=1;whiteSpace=wrap;html=1;" parent="1" vertex="1">
          <mxGeometry x="340" y="640" width="110" height="40" as="geometry" />
        </mxCell>
        <mxCell id="9eA5lfAB1Y5CMcZifdAw-45" value="Notifications" style="rounded=1;whiteSpace=wrap;html=1;" parent="1" vertex="1">
          <mxGeometry x="340" y="760" width="110" height="40" as="geometry" />
        </mxCell>
        <mxCell id="lAM38rja-ymvC1sj4Zwh-1" value="Analytics &amp;amp; Insights" style="rounded=1;whiteSpace=wrap;html=1;" parent="1" vertex="1">
          <mxGeometry x="340" y="700" width="110" height="40" as="geometry" />
        </mxCell>
        <mxCell id="lAM38rja-ymvC1sj4Zwh-57" style="edgeStyle=orthogonalEdgeStyle;rounded=0;orthogonalLoop=1;jettySize=auto;html=1;exitX=0;exitY=0.5;exitDx=0;exitDy=0;entryX=1;entryY=0.5;entryDx=0;entryDy=0;" parent="1" source="lAM38rja-ymvC1sj4Zwh-3" target="9eA5lfAB1Y5CMcZifdAw-42" edge="1">
          <mxGeometry relative="1" as="geometry">
            <mxPoint x="460" y="539.5" as="targetPoint" />
          </mxGeometry>
        </mxCell>
        <mxCell id="GS3nmqYbypGi17GtkTDs-22" style="edgeStyle=orthogonalEdgeStyle;rounded=0;orthogonalLoop=1;jettySize=auto;html=1;exitX=1;exitY=0.5;exitDx=0;exitDy=0;entryX=-0.017;entryY=0.575;entryDx=0;entryDy=0;entryPerimeter=0;" edge="1" parent="1">
          <mxGeometry relative="1" as="geometry">
            <mxPoint x="644.3699999999997" y="539.56" as="sourcePoint" />
            <mxPoint x="750" y="540.435" as="targetPoint" />
            <Array as="points">
              <mxPoint x="697.87" y="539.51" />
            </Array>
          </mxGeometry>
        </mxCell>
        <mxCell id="lAM38rja-ymvC1sj4Zwh-3" value="" style="ellipse;whiteSpace=wrap;html=1;aspect=fixed;gradientColor=none;" parent="1" vertex="1">
          <mxGeometry x="550.5" y="492.5" width="95" height="95" as="geometry" />
        </mxCell>
        <mxCell id="lAM38rja-ymvC1sj4Zwh-5" value="" style="shape=umlActor;verticalLabelPosition=bottom;verticalAlign=top;html=1;outlineConnect=0;fillColor=#d80073;fontColor=#ffffff;strokeColor=#A50040;" parent="1" vertex="1">
          <mxGeometry x="592" y="507" width="10" height="20" as="geometry" />
        </mxCell>
        <mxCell id="lAM38rja-ymvC1sj4Zwh-11" value="Actors" style="shape=umlActor;verticalLabelPosition=bottom;verticalAlign=top;html=1;outlineConnect=0;fillColor=#fa6800;fontColor=#000000;strokeColor=#C73500;" parent="1" vertex="1">
          <mxGeometry x="592" y="532" width="10" height="20" as="geometry" />
        </mxCell>
        <mxCell id="lAM38rja-ymvC1sj4Zwh-12" value="" style="shape=umlActor;verticalLabelPosition=bottom;verticalAlign=top;html=1;outlineConnect=0;fillColor=#1ba1e2;fontColor=#ffffff;strokeColor=#006EAF;" parent="1" vertex="1">
          <mxGeometry x="612" y="517" width="10" height="20" as="geometry" />
        </mxCell>
        <mxCell id="lAM38rja-ymvC1sj4Zwh-13" value="" style="shape=umlActor;verticalLabelPosition=bottom;verticalAlign=top;html=1;outlineConnect=0;fillColor=#008a00;fontColor=#ffffff;strokeColor=#005700;" parent="1" vertex="1">
          <mxGeometry x="572" y="517" width="10" height="20" as="geometry" />
        </mxCell>
        <mxCell id="lAM38rja-ymvC1sj4Zwh-29" value="" style="endArrow=classic;html=1;rounded=0;" parent="1" edge="1">
          <mxGeometry width="50" height="50" relative="1" as="geometry">
            <mxPoint x="500" y="719.5" as="sourcePoint" />
            <mxPoint x="450" y="719.76" as="targetPoint" />
          </mxGeometry>
        </mxCell>
        <mxCell id="lAM38rja-ymvC1sj4Zwh-35" value="" style="endArrow=classic;html=1;rounded=0;" parent="1" edge="1">
          <mxGeometry width="50" height="50" relative="1" as="geometry">
            <mxPoint x="500" y="359.86" as="sourcePoint" />
            <mxPoint x="450" y="360.12" as="targetPoint" />
          </mxGeometry>
        </mxCell>
        <mxCell id="lAM38rja-ymvC1sj4Zwh-37" value="" style="endArrow=classic;html=1;rounded=0;" parent="1" edge="1">
          <mxGeometry width="50" height="50" relative="1" as="geometry">
            <mxPoint x="500" y="419.76" as="sourcePoint" />
            <mxPoint x="450" y="420.02" as="targetPoint" />
          </mxGeometry>
        </mxCell>
        <mxCell id="lAM38rja-ymvC1sj4Zwh-38" value="" style="endArrow=classic;html=1;rounded=0;" parent="1" edge="1">
          <mxGeometry width="50" height="50" relative="1" as="geometry">
            <mxPoint x="500" y="479.76" as="sourcePoint" />
            <mxPoint x="450" y="480.02" as="targetPoint" />
          </mxGeometry>
        </mxCell>
        <mxCell id="lAM38rja-ymvC1sj4Zwh-39" value="" style="endArrow=classic;html=1;rounded=0;" parent="1" edge="1">
          <mxGeometry width="50" height="50" relative="1" as="geometry">
            <mxPoint x="500" y="599.6600000000001" as="sourcePoint" />
            <mxPoint x="450" y="599.9200000000001" as="targetPoint" />
          </mxGeometry>
        </mxCell>
        <mxCell id="lAM38rja-ymvC1sj4Zwh-40" value="" style="endArrow=classic;html=1;rounded=0;" parent="1" edge="1">
          <mxGeometry width="50" height="50" relative="1" as="geometry">
            <mxPoint x="500" y="659.6600000000001" as="sourcePoint" />
            <mxPoint x="450" y="659.9200000000001" as="targetPoint" />
          </mxGeometry>
        </mxCell>
        <mxCell id="lAM38rja-ymvC1sj4Zwh-48" value="" style="endArrow=classic;html=1;rounded=0;" parent="1" edge="1">
          <mxGeometry width="50" height="50" relative="1" as="geometry">
            <mxPoint x="500" y="299.8700000000001" as="sourcePoint" />
            <mxPoint x="450" y="300.1300000000001" as="targetPoint" />
          </mxGeometry>
        </mxCell>
        <mxCell id="lAM38rja-ymvC1sj4Zwh-49" value="" style="endArrow=classic;html=1;rounded=0;" parent="1" edge="1">
          <mxGeometry width="50" height="50" relative="1" as="geometry">
            <mxPoint x="500" y="779.71" as="sourcePoint" />
            <mxPoint x="450" y="779.97" as="targetPoint" />
          </mxGeometry>
        </mxCell>
        <mxCell id="lAM38rja-ymvC1sj4Zwh-50" value="" style="endArrow=none;html=1;rounded=0;" parent="1" edge="1">
          <mxGeometry width="50" height="50" relative="1" as="geometry">
            <mxPoint x="500" y="780.5" as="sourcePoint" />
            <mxPoint x="500" y="297.5" as="targetPoint" />
          </mxGeometry>
        </mxCell>
        <mxCell id="lAM38rja-ymvC1sj4Zwh-58" value="User Accounts" style="rounded=1;whiteSpace=wrap;html=1;" parent="1" vertex="1">
          <mxGeometry x="750" y="320" width="110" height="40" as="geometry" />
        </mxCell>
        <mxCell id="GS3nmqYbypGi17GtkTDs-28" style="edgeStyle=orthogonalEdgeStyle;rounded=0;orthogonalLoop=1;jettySize=auto;html=1;exitX=0;exitY=0.5;exitDx=0;exitDy=0;entryX=0;entryY=0.5;entryDx=0;entryDy=0;" edge="1" parent="1">
          <mxGeometry relative="1" as="geometry">
            <mxPoint x="750" y="399.74" as="targetPoint" />
            <mxPoint x="700" y="399.7832098765433" as="sourcePoint" />
            <Array as="points">
              <mxPoint x="726" y="399.5" />
            </Array>
          </mxGeometry>
        </mxCell>
        <mxCell id="lAM38rja-ymvC1sj4Zwh-59" value="Customer support" style="rounded=1;whiteSpace=wrap;html=1;" parent="1" vertex="1">
          <mxGeometry x="750" y="380" width="110" height="40" as="geometry" />
        </mxCell>
        <mxCell id="GS3nmqYbypGi17GtkTDs-25" style="edgeStyle=orthogonalEdgeStyle;rounded=0;orthogonalLoop=1;jettySize=auto;html=1;exitX=0;exitY=0.5;exitDx=0;exitDy=0;entryX=0;entryY=0.5;entryDx=0;entryDy=0;" edge="1" parent="1" target="lAM38rja-ymvC1sj4Zwh-61">
          <mxGeometry relative="1" as="geometry">
            <mxPoint x="700" y="667.4506172839506" as="sourcePoint" />
            <Array as="points">
              <mxPoint x="720" y="667.5" />
              <mxPoint x="720" y="667.5" />
            </Array>
          </mxGeometry>
        </mxCell>
        <mxCell id="lAM38rja-ymvC1sj4Zwh-61" value="User Feedback rating" style="rounded=1;whiteSpace=wrap;html=1;" parent="1" vertex="1">
          <mxGeometry x="750" y="647.5" width="110" height="40" as="geometry" />
        </mxCell>
        <mxCell id="GS3nmqYbypGi17GtkTDs-27" style="edgeStyle=orthogonalEdgeStyle;rounded=0;orthogonalLoop=1;jettySize=auto;html=1;exitX=0;exitY=0.5;exitDx=0;exitDy=0;entryX=0;entryY=0.5;entryDx=0;entryDy=0;" edge="1" parent="1" target="lAM38rja-ymvC1sj4Zwh-63">
          <mxGeometry relative="1" as="geometry">
            <mxPoint x="700" y="472.3888888888889" as="sourcePoint" />
            <Array as="points">
              <mxPoint x="730" y="472.5" />
              <mxPoint x="730" y="472.5" />
            </Array>
          </mxGeometry>
        </mxCell>
        <mxCell id="lAM38rja-ymvC1sj4Zwh-63" value="Showtimes and Venues" style="rounded=1;whiteSpace=wrap;html=1;" parent="1" vertex="1">
          <mxGeometry x="750" y="452.5" width="110" height="40" as="geometry" />
        </mxCell>
        <mxCell id="lAM38rja-ymvC1sj4Zwh-64" value="Online Payments" style="rounded=1;whiteSpace=wrap;html=1;" parent="1" vertex="1">
          <mxGeometry x="750" y="515" width="110" height="45" as="geometry" />
        </mxCell>
        <mxCell id="GS3nmqYbypGi17GtkTDs-24" style="edgeStyle=orthogonalEdgeStyle;rounded=0;orthogonalLoop=1;jettySize=auto;html=1;exitX=0;exitY=0.75;exitDx=0;exitDy=0;entryX=0;entryY=0.75;entryDx=0;entryDy=0;" edge="1" parent="1" target="lAM38rja-ymvC1sj4Zwh-68">
          <mxGeometry relative="1" as="geometry">
            <mxPoint x="700" y="737.5740740740741" as="sourcePoint" />
            <Array as="points">
              <mxPoint x="730" y="737.5" />
            </Array>
          </mxGeometry>
        </mxCell>
        <mxCell id="lAM38rja-ymvC1sj4Zwh-68" value="Dashboard" style="rounded=1;whiteSpace=wrap;html=1;" parent="1" vertex="1">
          <mxGeometry x="750" y="707.5" width="110" height="40" as="geometry" />
        </mxCell>
        <mxCell id="GS3nmqYbypGi17GtkTDs-26" style="edgeStyle=orthogonalEdgeStyle;rounded=0;orthogonalLoop=1;jettySize=auto;html=1;exitX=0;exitY=0.5;exitDx=0;exitDy=0;entryX=0;entryY=0.5;entryDx=0;entryDy=0;" edge="1" parent="1" target="GS3nmqYbypGi17GtkTDs-8">
          <mxGeometry relative="1" as="geometry">
            <mxPoint x="700" y="607.4506172839506" as="sourcePoint" />
            <Array as="points">
              <mxPoint x="710" y="607.5" />
              <mxPoint x="710" y="607.5" />
            </Array>
          </mxGeometry>
        </mxCell>
        <mxCell id="GS3nmqYbypGi17GtkTDs-8" value="Communication" style="rounded=1;whiteSpace=wrap;html=1;" vertex="1" parent="1">
          <mxGeometry x="750" y="587.5" width="110" height="40" as="geometry" />
        </mxCell>
        <mxCell id="GS3nmqYbypGi17GtkTDs-43" style="edgeStyle=orthogonalEdgeStyle;rounded=0;orthogonalLoop=1;jettySize=auto;html=1;entryX=1.018;entryY=0.564;entryDx=0;entryDy=0;entryPerimeter=0;" edge="1" parent="1" source="GS3nmqYbypGi17GtkTDs-12" target="lAM38rja-ymvC1sj4Zwh-64">
          <mxGeometry relative="1" as="geometry">
            <mxPoint x="870" y="540" as="targetPoint" />
          </mxGeometry>
        </mxCell>
        <mxCell id="GS3nmqYbypGi17GtkTDs-12" value="&lt;br&gt;&lt;br&gt;&lt;br&gt;Admin" style="ellipse;whiteSpace=wrap;html=1;aspect=fixed;gradientColor=none;" vertex="1" parent="1">
          <mxGeometry x="967.5" y="492.5" width="95" height="95" as="geometry" />
        </mxCell>
        <mxCell id="GS3nmqYbypGi17GtkTDs-17" value="" style="shape=image;html=1;verticalLabelPosition=bottom;verticalAlign=top;imageAspect=0;image=img/clipart/Gear_128x128.png" vertex="1" parent="1">
          <mxGeometry x="996" y="507.5" width="40" height="42.5" as="geometry" />
        </mxCell>
        <mxCell id="GS3nmqYbypGi17GtkTDs-23" value="" style="endArrow=none;html=1;rounded=0;" edge="1" parent="1">
          <mxGeometry width="50" height="50" relative="1" as="geometry">
            <mxPoint x="700" y="737.5" as="sourcePoint" />
            <mxPoint x="700" y="337.5" as="targetPoint" />
          </mxGeometry>
        </mxCell>
        <mxCell id="GS3nmqYbypGi17GtkTDs-37" value="" style="endArrow=classic;html=1;rounded=0;entryX=0.003;entryY=0.456;entryDx=0;entryDy=0;entryPerimeter=0;" edge="1" parent="1" target="lAM38rja-ymvC1sj4Zwh-58">
          <mxGeometry width="50" height="50" relative="1" as="geometry">
            <mxPoint x="700" y="337.5" as="sourcePoint" />
            <mxPoint x="750" y="339.998947368421" as="targetPoint" />
          </mxGeometry>
        </mxCell>
        <mxCell id="GS3nmqYbypGi17GtkTDs-44" value="Manage Movie listing" style="rounded=1;whiteSpace=wrap;html=1;" vertex="1" parent="1">
          <mxGeometry x="1190" y="280" width="110" height="40" as="geometry" />
        </mxCell>
        <mxCell id="GS3nmqYbypGi17GtkTDs-45" value="Seating Arrangement" style="rounded=1;whiteSpace=wrap;html=1;" vertex="1" parent="1">
          <mxGeometry x="1190" y="343" width="110" height="40" as="geometry" />
        </mxCell>
        <mxCell id="GS3nmqYbypGi17GtkTDs-48" value="Handle Refunds" style="rounded=1;whiteSpace=wrap;html=1;" vertex="1" parent="1">
          <mxGeometry x="1190" y="402" width="110" height="40" as="geometry" />
        </mxCell>
        <mxCell id="GS3nmqYbypGi17GtkTDs-49" value="Update Information" style="rounded=1;whiteSpace=wrap;html=1;" vertex="1" parent="1">
          <mxGeometry x="1190" y="753" width="110" height="40" as="geometry" />
        </mxCell>
        <mxCell id="GS3nmqYbypGi17GtkTDs-50" value="System Maintenance" style="rounded=1;whiteSpace=wrap;html=1;" vertex="1" parent="1">
          <mxGeometry x="1190" y="694" width="110" height="40" as="geometry" />
        </mxCell>
        <mxCell id="GS3nmqYbypGi17GtkTDs-51" value="User Management" style="rounded=1;whiteSpace=wrap;html=1;" vertex="1" parent="1">
          <mxGeometry x="1190" y="635.5" width="110" height="40" as="geometry" />
        </mxCell>
        <mxCell id="GS3nmqYbypGi17GtkTDs-52" value="Admin Dashboard" style="rounded=1;whiteSpace=wrap;html=1;" vertex="1" parent="1">
          <mxGeometry x="1190" y="577.5" width="110" height="40" as="geometry" />
        </mxCell>
        <mxCell id="GS3nmqYbypGi17GtkTDs-53" value="Resolve any issues" style="rounded=1;whiteSpace=wrap;html=1;" vertex="1" parent="1">
          <mxGeometry x="1190" y="461" width="110" height="40" as="geometry" />
        </mxCell>
        <mxCell id="GS3nmqYbypGi17GtkTDs-69" style="edgeStyle=orthogonalEdgeStyle;rounded=0;orthogonalLoop=1;jettySize=auto;html=1;exitX=1.033;exitY=0.485;exitDx=0;exitDy=0;entryX=0;entryY=0.5;entryDx=0;entryDy=0;exitPerimeter=0;" edge="1" parent="1" source="GS3nmqYbypGi17GtkTDs-12" target="GS3nmqYbypGi17GtkTDs-54">
          <mxGeometry relative="1" as="geometry" />
        </mxCell>
        <mxCell id="GS3nmqYbypGi17GtkTDs-54" value="Bookings Monitoring" style="rounded=1;whiteSpace=wrap;html=1;" vertex="1" parent="1">
          <mxGeometry x="1190" y="519" width="110" height="40" as="geometry" />
        </mxCell>
        <mxCell id="GS3nmqYbypGi17GtkTDs-56" value="" style="endArrow=none;html=1;rounded=0;" edge="1" parent="1">
          <mxGeometry width="50" height="50" relative="1" as="geometry">
            <mxPoint x="910" y="734.5" as="sourcePoint" />
            <mxPoint x="910" y="334.5" as="targetPoint" />
          </mxGeometry>
        </mxCell>
        <mxCell id="GS3nmqYbypGi17GtkTDs-57" value="" style="endArrow=none;html=1;rounded=0;" edge="1" parent="1">
          <mxGeometry width="50" height="50" relative="1" as="geometry">
            <mxPoint x="1140" y="779" as="sourcePoint" />
            <mxPoint x="1140" y="296" as="targetPoint" />
          </mxGeometry>
        </mxCell>
        <mxCell id="GS3nmqYbypGi17GtkTDs-58" style="edgeStyle=orthogonalEdgeStyle;rounded=0;orthogonalLoop=1;jettySize=auto;html=1;exitX=0;exitY=0.5;exitDx=0;exitDy=0;entryX=0;entryY=0.5;entryDx=0;entryDy=0;" edge="1" parent="1">
          <mxGeometry relative="1" as="geometry">
            <mxPoint x="1190" y="296.75" as="targetPoint" />
            <mxPoint x="1140" y="296.6388888888889" as="sourcePoint" />
            <Array as="points">
              <mxPoint x="1170" y="296.75" />
              <mxPoint x="1170" y="296.75" />
            </Array>
          </mxGeometry>
        </mxCell>
        <mxCell id="GS3nmqYbypGi17GtkTDs-60" style="edgeStyle=orthogonalEdgeStyle;rounded=0;orthogonalLoop=1;jettySize=auto;html=1;exitX=0;exitY=0.5;exitDx=0;exitDy=0;entryX=0;entryY=0.5;entryDx=0;entryDy=0;" edge="1" parent="1">
          <mxGeometry relative="1" as="geometry">
            <mxPoint x="1190" y="367.61" as="targetPoint" />
            <mxPoint x="1140" y="367.4988888888889" as="sourcePoint" />
            <Array as="points">
              <mxPoint x="1170" y="367.61" />
              <mxPoint x="1170" y="367.61" />
            </Array>
          </mxGeometry>
        </mxCell>
        <mxCell id="GS3nmqYbypGi17GtkTDs-61" style="edgeStyle=orthogonalEdgeStyle;rounded=0;orthogonalLoop=1;jettySize=auto;html=1;exitX=0;exitY=0.5;exitDx=0;exitDy=0;entryX=0;entryY=0.5;entryDx=0;entryDy=0;" edge="1" parent="1">
          <mxGeometry relative="1" as="geometry">
            <mxPoint x="1190" y="421.75" as="targetPoint" />
            <mxPoint x="1140" y="421.6388888888889" as="sourcePoint" />
            <Array as="points">
              <mxPoint x="1170" y="421.75" />
              <mxPoint x="1170" y="421.75" />
            </Array>
          </mxGeometry>
        </mxCell>
        <mxCell id="GS3nmqYbypGi17GtkTDs-62" style="edgeStyle=orthogonalEdgeStyle;rounded=0;orthogonalLoop=1;jettySize=auto;html=1;exitX=0;exitY=0.5;exitDx=0;exitDy=0;entryX=0;entryY=0.5;entryDx=0;entryDy=0;" edge="1" parent="1">
          <mxGeometry relative="1" as="geometry">
            <mxPoint x="1190" y="479.75" as="targetPoint" />
            <mxPoint x="1140" y="479.6388888888889" as="sourcePoint" />
            <Array as="points">
              <mxPoint x="1170" y="479.75" />
              <mxPoint x="1170" y="479.75" />
            </Array>
          </mxGeometry>
        </mxCell>
        <mxCell id="GS3nmqYbypGi17GtkTDs-63" style="edgeStyle=orthogonalEdgeStyle;rounded=0;orthogonalLoop=1;jettySize=auto;html=1;exitX=0;exitY=0.5;exitDx=0;exitDy=0;entryX=0;entryY=0.5;entryDx=0;entryDy=0;" edge="1" parent="1">
          <mxGeometry relative="1" as="geometry">
            <mxPoint x="1190" y="599.75" as="targetPoint" />
            <mxPoint x="1140" y="599.6388888888889" as="sourcePoint" />
            <Array as="points">
              <mxPoint x="1170" y="599.75" />
              <mxPoint x="1170" y="599.75" />
            </Array>
          </mxGeometry>
        </mxCell>
        <mxCell id="GS3nmqYbypGi17GtkTDs-64" style="edgeStyle=orthogonalEdgeStyle;rounded=0;orthogonalLoop=1;jettySize=auto;html=1;exitX=0;exitY=0.5;exitDx=0;exitDy=0;entryX=0;entryY=0.5;entryDx=0;entryDy=0;" edge="1" parent="1">
          <mxGeometry relative="1" as="geometry">
            <mxPoint x="1190" y="659.75" as="targetPoint" />
            <mxPoint x="1140" y="659.6388888888889" as="sourcePoint" />
            <Array as="points">
              <mxPoint x="1170" y="659.75" />
              <mxPoint x="1170" y="659.75" />
            </Array>
          </mxGeometry>
        </mxCell>
        <mxCell id="GS3nmqYbypGi17GtkTDs-65" style="edgeStyle=orthogonalEdgeStyle;rounded=0;orthogonalLoop=1;jettySize=auto;html=1;exitX=0;exitY=0.5;exitDx=0;exitDy=0;entryX=0;entryY=0.5;entryDx=0;entryDy=0;" edge="1" parent="1">
          <mxGeometry relative="1" as="geometry">
            <mxPoint x="1190" y="713.75" as="targetPoint" />
            <mxPoint x="1140" y="713.6388888888889" as="sourcePoint" />
            <Array as="points">
              <mxPoint x="1170" y="713.75" />
              <mxPoint x="1170" y="713.75" />
            </Array>
          </mxGeometry>
        </mxCell>
        <mxCell id="GS3nmqYbypGi17GtkTDs-67" style="edgeStyle=orthogonalEdgeStyle;rounded=0;orthogonalLoop=1;jettySize=auto;html=1;exitX=0;exitY=0.5;exitDx=0;exitDy=0;entryX=0;entryY=0.5;entryDx=0;entryDy=0;" edge="1" parent="1">
          <mxGeometry relative="1" as="geometry">
            <mxPoint x="1190" y="779.75" as="targetPoint" />
            <mxPoint x="1140" y="779.6388888888889" as="sourcePoint" />
            <Array as="points">
              <mxPoint x="1170" y="779.75" />
              <mxPoint x="1170" y="779.75" />
            </Array>
          </mxGeometry>
        </mxCell>
        <mxCell id="GS3nmqYbypGi17GtkTDs-70" value="" style="endArrow=classic;html=1;rounded=0;" edge="1" parent="1">
          <mxGeometry width="50" height="50" relative="1" as="geometry">
            <mxPoint x="910" y="339.76" as="sourcePoint" />
            <mxPoint x="860" y="340.02" as="targetPoint" />
          </mxGeometry>
        </mxCell>
        <mxCell id="GS3nmqYbypGi17GtkTDs-72" value="" style="endArrow=classic;html=1;rounded=0;" edge="1" parent="1">
          <mxGeometry width="50" height="50" relative="1" as="geometry">
            <mxPoint x="910" y="399.76" as="sourcePoint" />
            <mxPoint x="860" y="400.02" as="targetPoint" />
          </mxGeometry>
        </mxCell>
        <mxCell id="GS3nmqYbypGi17GtkTDs-73" value="" style="endArrow=classic;html=1;rounded=0;" edge="1" parent="1">
          <mxGeometry width="50" height="50" relative="1" as="geometry">
            <mxPoint x="910" y="479.76" as="sourcePoint" />
            <mxPoint x="860" y="480.02" as="targetPoint" />
          </mxGeometry>
        </mxCell>
        <mxCell id="GS3nmqYbypGi17GtkTDs-74" value="" style="endArrow=classic;html=1;rounded=0;" edge="1" parent="1">
          <mxGeometry width="50" height="50" relative="1" as="geometry">
            <mxPoint x="910" y="607.26" as="sourcePoint" />
            <mxPoint x="860" y="607.52" as="targetPoint" />
          </mxGeometry>
        </mxCell>
        <mxCell id="GS3nmqYbypGi17GtkTDs-75" value="" style="endArrow=classic;html=1;rounded=0;" edge="1" parent="1">
          <mxGeometry width="50" height="50" relative="1" as="geometry">
            <mxPoint x="910" y="667.26" as="sourcePoint" />
            <mxPoint x="860" y="667.52" as="targetPoint" />
          </mxGeometry>
        </mxCell>
        <mxCell id="GS3nmqYbypGi17GtkTDs-76" value="" style="endArrow=classic;html=1;rounded=0;" edge="1" parent="1">
          <mxGeometry width="50" height="50" relative="1" as="geometry">
            <mxPoint x="910" y="734" as="sourcePoint" />
            <mxPoint x="860" y="734.26" as="targetPoint" />
          </mxGeometry>
        </mxCell>
        <mxCell id="GS3nmqYbypGi17GtkTDs-77" value="" style="endArrow=classic;startArrow=classic;html=1;rounded=0;" edge="1" parent="1">
          <mxGeometry width="50" height="50" relative="1" as="geometry">
            <mxPoint x="340" y="897.5" as="sourcePoint" />
            <mxPoint x="800" y="897.5" as="targetPoint" />
          </mxGeometry>
        </mxCell>
        <mxCell id="GS3nmqYbypGi17GtkTDs-79" value="&lt;font color=&quot;#ff4a5c&quot;&gt;&lt;b&gt;User Diagram&lt;/b&gt;&lt;/font&gt;" style="edgeLabel;html=1;align=center;verticalAlign=middle;resizable=0;points=[];" vertex="1" connectable="0" parent="GS3nmqYbypGi17GtkTDs-77">
          <mxGeometry x="0.0318" y="-2" relative="1" as="geometry">
            <mxPoint as="offset" />
          </mxGeometry>
        </mxCell>
        <mxCell id="GS3nmqYbypGi17GtkTDs-80" value="" style="endArrow=classic;startArrow=classic;html=1;rounded=0;" edge="1" parent="1">
          <mxGeometry width="50" height="50" relative="1" as="geometry">
            <mxPoint x="805" y="897.5" as="sourcePoint" />
            <mxPoint x="1300" y="897.5" as="targetPoint" />
          </mxGeometry>
        </mxCell>
        <mxCell id="GS3nmqYbypGi17GtkTDs-81" value="&lt;b&gt;&lt;font color=&quot;#ff384c&quot;&gt;Admin Diagram&lt;/font&gt;&lt;/b&gt;" style="edgeLabel;html=1;align=center;verticalAlign=middle;resizable=0;points=[];" vertex="1" connectable="0" parent="GS3nmqYbypGi17GtkTDs-80">
          <mxGeometry x="0.0318" y="-2" relative="1" as="geometry">
            <mxPoint as="offset" />
          </mxGeometry>
        </mxCell>
      </root>
    </mxGraphModel>
  </diagram>
</mxfile>
